<svg width="84" height="84" viewBox="0 0 84 84" fill="none" xmlns="http://www.w3.org/2000/svg">
<rect y="2" width="84" height="81" rx="4" fill="#0981C4"/>
<path d="M47.12 10C47.74 10 48.37 10 48.99 10C49.08 10.04 49.17 10.09 49.27 10.11C52.62 10.77 54.82 12.73 55.64 16.03C55.95 17.28 55.84 18.63 55.9 19.94C55.93 20.62 55.9 21.3 55.9 22.04H56.72C61.62 22.04 66.51 22.04 71.41 22.04C71.62 22.04 71.83 22.04 72.03 22.04C73.27 22.11 73.98 22.85 73.98 24.1C73.98 30.02 73.98 35.93 73.98 41.85C73.98 43.11 73.21 43.86 71.94 43.87C70.11 43.88 68.27 43.87 66.44 43.87C66.05 43.87 65.65 43.9 65.26 43.97C63.2 44.37 61.83 46.2 61.97 48.34C62.1 50.36 63.72 52.03 65.78 52.11C67.78 52.19 69.78 52.14 71.78 52.16C73.29 52.17 73.99 52.88 73.99 54.4C73.99 60.17 73.99 65.94 73.99 71.71C73.99 73.3 73.3 73.99 71.71 73.99C65.98 73.99 60.25 73.99 54.52 73.99C52.81 73.99 52.16 73.32 52.15 71.6C52.15 69.64 52.17 67.68 52.1 65.73C52.05 64.34 51.33 63.28 50.15 62.57C47.35 60.89 43.94 62.82 43.87 66.14C43.83 67.99 43.87 69.85 43.87 71.7C43.87 73.3 43.18 73.99 41.6 73.99C35.89 73.99 30.18 73.99 24.48 73.99C22.68 73.99 22.04 73.35 22.04 71.54C22.04 66.6 22.04 61.67 22.04 56.73C22.04 56.48 22.04 56.24 22.04 55.91C21.76 55.91 21.53 55.91 21.31 55.91C20.06 55.91 18.81 55.94 17.56 55.88C14.75 55.75 12.57 54.46 11.15 52.05C10.6 51.12 10.37 50.02 9.98999 48.99C9.98999 48.37 9.98999 47.74 9.98999 47.12C10.33 46.13 10.53 45.05 11.04 44.15C12.52 41.54 14.84 40.21 17.85 40.13C19.22 40.09 20.59 40.13 22.03 40.13C22.03 39.82 22.03 39.58 22.03 39.34C22.03 34.38 22.03 29.43 22.03 24.47C22.03 22.71 22.68 22.05 24.44 22.05C29.4 22.05 34.35 22.05 39.31 22.05C39.55 22.05 39.8 22.05 40.11 22.05C40.11 20.55 40.07 19.12 40.11 17.69C40.19 15.19 41.26 13.17 43.22 11.62C44.36 10.72 45.7 10.3 47.09 10H47.12ZM70.22 25.79C69.93 25.79 69.68 25.79 69.44 25.79C64.46 25.79 59.48 25.79 54.51 25.79C52.83 25.79 52.18 25.13 52.17 23.43C52.17 21.45 52.19 19.47 52.12 17.5C52.07 16.14 51.35 15.09 50.2 14.39C47.38 12.68 43.95 14.63 43.89 17.98C43.86 19.79 43.89 21.6 43.89 23.42C43.89 25.15 43.25 25.8 41.52 25.8C36.56 25.8 31.61 25.8 26.65 25.8C26.09 25.8 25.81 26.08 25.81 26.64C25.81 31.66 25.81 36.68 25.81 41.7C25.81 43.18 25.1 43.88 23.63 43.88C21.84 43.88 20.05 43.88 18.26 43.88C17.89 43.88 17.51 43.91 17.14 43.97C15.15 44.34 13.68 46.2 13.79 48.19C13.9 50.3 15.52 52.03 17.59 52.12C19.52 52.2 21.46 52.16 23.4 52.17C25.18 52.17 25.82 52.8 25.82 54.57C25.82 59.55 25.82 64.53 25.82 69.5C25.82 69.74 25.82 69.98 25.82 70.2H40.15C40.15 69.03 40.14 67.9 40.15 66.78C40.15 66.16 40.17 65.53 40.26 64.91C40.77 61.42 43.63 58.64 47.08 58.26C50.76 57.85 54.22 59.92 55.41 63.36C55.76 64.36 55.84 65.47 55.92 66.54C56 67.76 55.94 68.98 55.94 70.21H70.22V55.89C68.68 55.89 67.18 55.94 65.68 55.89C60.78 55.69 57.24 50.9 58.45 46.15C59.35 42.62 62.4 40.19 66.04 40.14C67.43 40.12 68.82 40.14 70.24 40.14V25.81L70.22 25.79Z" fill="white"/>
</svg>
