<svg width="84" height="84" viewBox="0 0 84 84" fill="none" xmlns="http://www.w3.org/2000/svg">
<rect width="84" height="84" rx="4" fill="#0981C4"/>
<path d="M44.3099 10C44.9299 10.12 45.5499 10.29 46.1799 10.37C48.3999 10.64 50.5099 11.28 52.5599 12.13C54.4399 12.9 56.1899 13.92 57.7699 15.19C60.0599 17.03 61.9299 19.24 63.2699 21.89C64.2799 23.89 64.9699 26 65.2699 28.19C65.5099 29.94 65.6299 31.73 65.5199 33.49C65.2799 37.55 64.2899 41.46 62.7599 45.23C61.6499 47.96 60.4199 50.64 58.8499 53.15C57.4899 55.33 56.1499 57.53 54.6999 59.65C53.4099 61.53 52.0299 63.35 50.5899 65.13C48.8999 67.22 47.0999 69.23 45.3499 71.27C44.7899 71.93 44.2299 72.59 43.6399 73.22C42.8299 74.1 41.4999 74.41 40.5399 73.32C38.8799 71.43 37.1999 69.57 35.5399 67.68C32.4399 64.12 29.6399 60.34 27.0899 56.36C24.7699 52.73 22.7299 48.95 21.1599 44.93C20.1999 42.48 19.4699 39.98 18.9499 37.42C18.6999 36.21 18.6699 34.95 18.5499 33.71C18.4899 33.08 18.4099 32.44 18.4299 31.8C18.5299 28.62 19.0699 25.53 20.4199 22.61C21.5499 20.16 23.0899 18.01 25.0699 16.21C27.3899 14.09 30.0599 12.52 33.0499 11.53C34.9099 10.91 36.7999 10.35 38.7799 10.27C39.0399 10.26 39.2899 10.11 39.5499 10.03C41.1299 10.03 42.7199 10.03 44.2999 10.03L44.3099 10ZM41.9999 69.08C43.0399 67.87 44.0199 66.76 44.9799 65.63C46.2099 64.17 47.4999 62.76 48.6199 61.21C50.5899 58.48 52.4999 55.69 54.3499 52.87C56.9299 48.93 58.9199 44.69 60.2899 40.18C60.9699 37.93 61.4199 35.62 61.5399 33.28C61.6099 31.83 61.4499 30.36 61.3099 28.91C61.0899 26.8 60.3799 24.84 59.3299 22.98C57.7799 20.26 55.6199 18.19 52.8799 16.71C48.9799 14.6 44.7999 13.83 40.3999 14.1C38.8499 14.19 37.3499 14.45 35.8499 14.85C31.8799 15.92 28.4899 17.86 25.9399 21.18C23.6799 24.13 22.6799 27.51 22.4899 31.15C22.4199 32.45 22.6099 33.77 22.7299 35.08C22.9099 37.12 23.4599 39.08 24.0699 41.03C25.0999 44.32 26.4999 47.46 28.2599 50.4C30.0199 53.36 31.9399 56.23 33.8999 59.06C35.1699 60.89 36.6099 62.59 38.0199 64.32C39.2999 65.9 40.6399 67.43 42.0199 69.06L41.9999 69.08Z" fill="white"/>
<path d="M41.88 22.6199C48.28 22.4199 52.81 27.6099 53.05 32.9299C53.36 39.9399 47.92 44.2499 42.87 44.5999C35.86 45.0999 30.93 39.4199 30.95 33.5299C30.98 27.6299 35.81 22.4599 41.87 22.6199H41.88ZM41.94 26.6199C37.97 26.4599 34.97 29.8699 34.96 33.5399C34.96 37.3799 38.13 40.6899 42.09 40.6299C45.72 40.5799 49.29 37.4599 49.06 33.1599C48.88 29.7899 46.05 26.4799 41.94 26.6199Z" fill="white"/>
</svg>
