<svg width="84" height="84" viewBox="0 0 84 84" fill="none" xmlns="http://www.w3.org/2000/svg">
<rect y="2" width="84" height="81" rx="4" fill="#0981C4"/>
<path d="M43.66 9.97021C44.34 10.0702 45.01 10.1702 45.69 10.2802C50.8 11.0702 55.19 13.3002 58.87 16.9002C62.18 20.1402 64.37 24.0502 65.42 28.5702C66.58 33.5502 66.18 38.4202 64.21 43.1402C63.99 43.6702 64 44.0602 64.29 44.5702C67.41 49.9402 70.51 55.3102 73.58 60.7102C73.85 61.1902 74.04 61.8202 73.99 62.3502C73.9 63.4702 72.85 64.1802 71.68 64.0002C68.3 63.5002 64.92 62.9802 61.55 62.4602C60.66 62.3202 60.66 62.3102 60.34 63.1302C59.15 66.1802 57.97 69.2202 56.78 72.2702C56.67 72.5602 56.55 72.8602 56.38 73.1202C55.66 74.2702 54.04 74.3502 53.18 73.3002C52.98 73.0602 52.83 72.7802 52.67 72.5102C49.96 67.8202 47.24 63.1402 44.55 58.4402C44.32 58.0402 44.09 57.9102 43.63 57.9302C42.55 57.9802 41.46 57.9702 40.38 57.9302C39.95 57.9102 39.72 58.0402 39.5 58.4202C36.84 63.0602 34.15 67.7002 31.48 72.3302C31.4 72.4702 31.31 72.6202 31.23 72.7602C30.79 73.5802 30.15 74.1102 29.19 74.0302C28.24 73.9502 27.69 73.3502 27.35 72.4802C26.13 69.3102 24.87 66.1602 23.67 62.9902C23.46 62.4202 23.19 62.3502 22.66 62.4302C19.37 62.9502 16.07 63.4402 12.78 63.9302C11.21 64.1702 10.64 63.8502 9.98999 62.4102C9.98999 62.1202 9.98999 61.8302 9.98999 61.5302C10.18 61.1902 10.37 60.8502 10.56 60.5102C13.66 55.1302 16.76 49.7602 19.86 44.3902C20.05 44.0702 20.13 43.8002 19.96 43.4202C18.21 39.3502 17.61 35.1202 18.24 30.7102C19 25.3702 21.29 20.7802 25.1 16.9902C28.82 13.2802 33.33 11.0302 38.55 10.2502C39.16 10.1602 39.78 10.0702 40.39 9.98021C41.47 9.98021 42.56 9.98021 43.64 9.98021L43.66 9.97021ZM42.01 54.0102C52.99 54.0402 62.02 45.0302 62.05 34.0202C62.08 23.0402 53.07 14.0102 42.06 13.9802C31.08 13.9502 22.05 22.9602 22.02 33.9702C21.99 44.9502 31 53.9802 42.01 54.0102ZM48.43 57.1302C50.42 60.5802 52.37 63.9502 54.36 67.4002C54.49 67.0802 54.58 66.8802 54.67 66.6602C55.58 64.3302 56.48 62.0102 57.39 59.6802C57.89 58.4102 58.63 57.9702 59.97 58.1602C61.45 58.3702 62.93 58.6102 64.41 58.8402C65.65 59.0302 66.89 59.2102 68.25 59.4102C66.01 55.5202 63.82 51.7402 61.6 47.8802C58.25 52.4702 53.88 55.5402 48.43 57.1302ZM15.82 59.4202C18.59 59.0002 21.23 58.6202 23.86 58.2002C25.41 57.9602 26.17 58.3602 26.74 59.8002C27.64 62.1102 28.53 64.4102 29.43 66.7202C29.51 66.9202 29.6 67.1102 29.72 67.3802C31.71 63.9302 33.66 60.5702 35.65 57.1202C30.19 55.5302 25.83 52.4602 22.48 47.8802C20.26 51.7402 18.08 55.5202 15.83 59.4202H15.82Z" fill="white"/>
<path d="M42.03 25.9901C41.33 25.9901 40.7 26.0001 40.08 25.9901C38.9 25.9601 38.03 25.1101 38.03 23.9901C38.03 22.8701 38.9 22.0101 40.08 21.9901C41.39 21.9701 42.71 21.9701 44.02 21.9901C45.19 22.0101 46.03 22.8401 46.03 24.0201C46.04 30.6701 46.04 37.3201 46.03 43.9701C46.03 45.1501 45.14 46.0101 44.02 46.0101C42.88 46.0101 42.03 45.1201 42.03 43.8901C42.03 38.2001 42.03 32.5101 42.03 26.8201C42.03 26.5701 42.03 26.3301 42.03 25.9901Z" fill="white"/>
</svg>
