<svg width="82" height="84" viewBox="0 0 82 84" fill="none" xmlns="http://www.w3.org/2000/svg">
<rect width="81.1034" height="84" rx="4" fill="#0981C4"/>
<path d="M61.4733 72.357C60.4801 72.1255 59.4869 71.9134 58.5515 71.4602C53.7397 69.117 52.0426 63.148 54.9547 58.6641C55.2537 58.2013 55.2633 57.9409 54.839 57.5359C51.9751 54.7202 49.1401 51.8755 46.3147 49.0213C45.9869 48.6838 45.7747 48.6645 45.3794 48.9152C40.0372 52.3577 33.1715 49.5516 31.7829 43.3512C31.2429 40.9405 31.7058 38.6841 33.0847 36.6302C33.3451 36.2445 33.3354 36.0323 32.9979 35.6948C30.6547 33.3805 28.3212 31.047 26.0069 28.7134C25.7176 28.4241 25.544 28.3663 25.1679 28.6266C19.1122 32.8598 10.829 29.2341 9.74901 21.9055C9.72973 21.7705 9.67187 21.6355 9.6333 21.5005C9.6333 20.8545 9.6333 20.218 9.6333 19.572C9.88402 18.4438 10.1154 17.3059 10.6169 16.2452C12.5454 12.1759 17.2994 9.86161 21.6676 10.903C22.3812 11.0766 22.7765 11.6359 22.6608 12.3205C22.5451 12.9955 21.9279 13.4102 21.1565 13.2463C19.3147 12.8702 17.5694 13.1016 15.9108 13.9984C13.1047 15.5123 11.5812 18.7427 12.179 21.9538C12.7383 25.0009 15.3033 27.4695 18.3601 27.9034C23.6347 28.6459 27.8679 24.1427 26.7976 18.9259C26.759 18.7523 26.7397 18.5691 26.7301 18.3859C26.6915 17.6916 27.0676 17.1805 27.6944 17.0745C28.2826 16.9684 28.8515 17.3059 29.0251 17.9423C29.3529 19.1091 29.4687 20.3048 29.3337 21.5198C29.1408 23.2652 28.5622 24.8755 27.5112 26.3027C27.3279 26.5534 27.3665 26.698 27.569 26.9005C29.9894 29.3113 32.4001 31.722 34.8108 34.1423C35.0229 34.3545 35.1676 34.3738 35.4087 34.2002C36.4404 33.4673 37.5783 32.9755 38.8222 32.773C39.2176 32.7055 39.2851 32.5223 39.2754 32.1752C39.2562 31.452 39.2465 30.7288 39.2754 30.0055C39.2947 29.6005 39.1501 29.427 38.7837 29.263C37.289 28.5688 36.4501 27.3538 36.3922 25.7145C36.3344 24.0752 37.0576 22.8023 38.4944 21.9923C40.5387 20.8448 43.0458 21.6452 44.1258 23.7666C45.1479 25.782 44.2608 28.3084 42.1683 29.2534C41.7729 29.427 41.6283 29.6198 41.6572 30.0441C41.6958 30.7673 41.6765 31.4905 41.6572 32.2138C41.6572 32.5416 41.7247 32.6959 42.0912 32.7634C44.4054 33.1973 46.2569 34.3738 47.6551 36.2734C47.8383 36.5241 47.9829 36.5434 48.2433 36.418C51.2326 34.9523 54.2219 33.4963 57.2304 32.0595C57.6162 31.8763 57.5679 31.6641 57.5004 31.3459C56.594 26.968 60.0076 22.8698 64.4819 22.9663C68.0497 23.0338 71.0487 25.8688 71.309 29.4173C71.579 33.0527 69.014 36.2927 65.4172 36.8327C62.8522 37.2184 60.7115 36.3795 59.0144 34.4316C58.7347 34.1038 58.5419 34.0845 58.1754 34.258C55.2826 35.6852 52.3704 37.093 49.4583 38.4816C49.0437 38.6841 48.9665 38.877 49.0726 39.3013C49.7379 41.847 49.3329 44.2384 47.8672 46.4177C47.6165 46.7938 47.6551 46.9963 47.9637 47.3048C50.8469 50.1591 53.7204 53.023 56.5651 55.9159C56.9219 56.2727 57.134 56.2823 57.5487 56.0123C62.8812 52.5795 69.7662 55.4338 71.1258 61.6341C72.2058 66.5423 68.7537 71.518 63.7683 72.2412C63.6333 72.2605 63.4983 72.3184 63.3729 72.357H61.4444H61.4733ZM62.4376 69.9463C66.0151 69.9463 68.9465 66.9955 68.9465 63.418C68.9465 59.8695 66.0151 56.938 62.4665 56.9284C58.889 56.9188 55.9383 59.8502 55.9287 63.418C55.9287 66.9955 58.8601 69.9366 62.4376 69.9366V69.9463ZM47.009 41.5095C47.009 37.9416 44.0679 34.9909 40.4904 35.0005C36.9419 35.0005 34.0104 37.9223 33.9912 41.4709C33.9719 45.0484 36.9033 47.9991 40.4808 48.0088C44.0583 48.0088 47.009 45.087 47.009 41.5095ZM64.289 34.5088C66.7576 34.5763 68.8597 32.5513 68.9465 30.0345C69.0333 27.5563 66.9504 25.4059 64.424 25.3577C61.9458 25.3095 59.8533 27.3538 59.7954 29.8705C59.7472 32.3488 61.7722 34.4413 64.289 34.5088ZM40.4808 27.2284C41.3969 27.2477 42.1779 26.4859 42.1876 25.5698C42.1972 24.6441 41.4547 23.892 40.529 23.8727C39.5937 23.863 38.8319 24.5959 38.8222 25.5216C38.8126 26.4377 39.5647 27.2091 40.4808 27.2284Z" fill="white"/>
<path d="M9.64282 64.5174C9.73925 64.1509 9.81639 63.7845 9.92247 63.4181C11.176 59.0595 16.2482 57.0345 20.1535 59.3584C20.5393 59.5899 20.7418 59.5706 21.06 59.2524C23.2489 57.0345 25.4571 54.8456 27.6557 52.647C28.0317 52.2709 28.4271 51.9334 29.025 52.0684C29.8542 52.2613 30.2303 53.1291 29.7867 53.8427C29.6517 54.0645 29.4589 54.2477 29.2757 54.4309C27.106 56.6102 24.9364 58.7799 22.7571 60.9495C22.4775 61.2291 22.3907 61.4124 22.6221 61.7981C25.1582 66.0699 22.6703 71.4024 17.7718 72.2509C17.6753 72.2702 17.5885 72.3184 17.4921 72.357H15.8046C15.7178 72.3184 15.6214 72.2702 15.5346 72.2509C12.6707 71.7591 10.4528 69.6666 9.81639 66.8413C9.76818 66.6291 9.81639 66.3977 9.66211 66.2049C9.66211 65.6456 9.66211 65.0766 9.66211 64.5174H9.64282ZM21.2143 65.3563C21.2143 62.8684 19.141 60.7952 16.6532 60.7856C14.1653 60.7759 12.0921 62.8395 12.0632 65.337C12.0439 67.8441 14.1557 69.9559 16.6628 69.9366C19.1603 69.9174 21.2239 67.8441 21.2143 65.3563Z" fill="white"/>
<path d="M25.6692 15.609C25.0135 15.5897 24.4445 15.0111 24.4735 14.365C24.4928 13.7286 25.0713 13.179 25.6885 13.1982C26.3345 13.2175 26.9035 13.8057 26.8842 14.4615C26.8649 15.1172 26.3249 15.6282 25.6692 15.609Z" fill="white"/>
<path d="M31.6093 49.1759C32.265 49.1663 32.805 49.6773 32.8147 50.3331C32.8243 50.9888 32.3132 51.5288 31.6672 51.5384C31.0114 51.5481 30.4714 51.037 30.4618 50.3909C30.4522 49.7352 30.9632 49.1952 31.6189 49.1856L31.6093 49.1759Z" fill="white"/>
</svg>
