<svg width="84" height="85" viewBox="0 0 84 85" fill="none" xmlns="http://www.w3.org/2000/svg">
<rect y="0.5" width="84" height="84" rx="4" fill="#0981C4"/>
<path d="M32.1501 52.3C34.3501 51.15 36.4801 50.08 38.5701 48.92C40.5501 47.82 42.5601 47.63 44.7301 48.49C44.8601 48.29 45.0101 48.09 45.1401 47.88C48.3701 42.8 51.6001 37.72 54.8401 32.65C55.5301 31.57 56.4601 31.14 57.4701 31.43C58.8601 31.82 59.5201 33.31 58.8701 34.6C58.7501 34.85 58.5901 35.08 58.4401 35.31C55.0801 40.58 51.7301 45.86 48.3601 51.13C48.1201 51.51 48.0401 51.81 48.2101 52.27C49.3301 55.3 48.0601 58.7 45.2201 60.23C41.0901 62.45 36.9401 64.65 32.7901 66.84C32.4501 67.02 32.3201 67.2 32.3301 67.59C32.3501 69.12 32.3501 70.66 32.3301 72.2C32.3101 73.32 31.6601 74.19 30.6901 74.45C29.7501 74.7 28.6901 74.33 28.2201 73.46C28.0101 73.07 27.9001 72.58 27.8901 72.14C27.8501 70.82 27.8601 69.49 27.8901 68.16C27.8901 67.76 27.8201 67.57 27.3601 67.45C25.0101 66.88 23.2201 65.53 22.0301 63.4C21.1501 61.84 20.2501 60.3 19.3701 58.74C18.6301 57.44 18.9201 56.13 20.0701 55.47C21.2201 54.82 22.5001 55.24 23.2401 56.53C24.1201 58.06 24.9901 59.6 25.8701 61.13C27.0601 63.19 29.1401 63.75 31.2401 62.62C35.1501 60.52 39.0701 58.45 42.9901 56.36C43.8501 55.9 44.2201 55.19 44.1301 54.24C44.0501 53.41 43.4901 52.65 42.6401 52.53C42.0901 52.45 41.4201 52.53 40.9201 52.79C37.7101 54.42 34.5301 56.12 31.3401 57.78C30.1401 58.41 28.9501 58.21 28.3201 57.2C28.0401 56.76 27.9701 56.16 27.8901 55.63C27.7101 54.44 27.7701 53.19 27.3901 52.07C26.3601 49.02 23.2401 47.32 19.9901 47.83C16.9701 48.31 14.5401 51.02 14.5101 54.15C14.4501 59.96 14.4901 65.78 14.4801 71.59C14.4801 71.85 14.4901 72.1 14.4801 72.36C14.3701 73.65 13.4201 74.53 12.1801 74.5C10.9501 74.47 10.0301 73.54 10.0301 72.23C10.0201 68.09 10.0301 63.95 10.0301 59.81C10.0301 58.04 10.0201 56.27 10.0301 54.51C10.0801 48.34 14.6201 43.59 20.7701 43.26C25.8601 42.99 30.6601 46.55 31.9701 51.57C32.0301 51.79 32.0901 52.02 32.1701 52.32L32.1501 52.3Z" fill="white"/>
<path d="M47.98 10.5C53.89 10.5 59.79 10.49 65.7 10.5C69.91 10.51 73.19 13.28 73.9 17.41C73.99 17.93 74 18.47 74 19.01C74 24.75 74.01 30.5001 74 36.2401C74 41.2001 70.47 44.7201 65.52 44.73C64.64 44.73 63.75 44.74 62.87 44.73C61.58 44.7001 60.59 43.7001 60.61 42.4701C60.63 41.2501 61.59 40.3001 62.86 40.2701C63.84 40.25 64.81 40.2701 65.79 40.2701C67.91 40.24 69.52 38.7001 69.53 36.57C69.56 30.62 69.56 24.66 69.53 18.71C69.53 16.45 67.93 14.98 65.56 14.98C57.68 14.98 49.79 14.98 41.91 14.98C38.1 14.98 34.28 14.98 30.47 14.98C27.86 14.98 26.38 16.47 26.38 19.1C26.38 19.5 26.4 19.8901 26.38 20.2901C26.31 21.4401 25.4 22.35 24.27 22.41C23.17 22.46 22.08 21.68 21.97 20.58C21.71 17.91 22.08 15.38 23.97 13.28C25.65 11.41 27.76 10.5001 30.27 10.5101C36.18 10.5101 42.08 10.5101 47.99 10.5101L47.98 10.5Z" fill="white"/>
<path d="M29.33 33.5502C29.33 38.0802 25.65 41.7902 21.14 41.7602C16.65 41.7402 12.98 38.0602 12.97 33.5802C12.97 29.0602 16.68 25.3502 21.18 25.3702C25.68 25.3902 29.33 29.0402 29.33 33.5502ZM24.86 33.5702C24.86 31.5102 23.2 29.8402 21.15 29.8402C19.11 29.8402 17.43 31.5302 17.43 33.5702C17.43 35.6102 19.11 37.3002 21.15 37.3002C23.2 37.3002 24.86 35.6302 24.86 33.5702Z" fill="white"/>
<path d="M47.93 26.8699C44 26.8699 40.07 26.8699 36.14 26.8699C35.19 26.8699 34.48 26.4599 34.05 25.6099C33.66 24.8399 33.73 24.0699 34.22 23.3599C34.66 22.7199 35.28 22.3999 36.06 22.3999C43.99 22.3999 51.92 22.3999 59.84 22.3999C61.13 22.3999 62.11 23.4099 62.1 24.6499C62.09 25.8899 61.1 26.8499 59.79 26.8499C55.84 26.8599 51.89 26.8499 47.93 26.8499V26.8699Z" fill="white"/>
<path d="M41.9399 35.8001C40.0599 35.8001 38.1799 35.8001 36.2999 35.8001C34.8399 35.8001 33.8099 34.8601 33.8199 33.5501C33.8299 32.2401 34.8399 31.3301 36.3299 31.3301C40.1199 31.3301 43.8999 31.3301 47.6899 31.3301C49.1699 31.3301 50.1899 32.2301 50.2099 33.5401C50.2299 34.8601 49.1799 35.7901 47.6699 35.8001C45.7699 35.8001 43.8599 35.8001 41.9599 35.8001H41.9399Z" fill="white"/>
</svg>
