<svg width="85" height="84" viewBox="0 0 85 84" fill="none" xmlns="http://www.w3.org/2000/svg">
<rect y="2" width="85" height="81" rx="4" fill="#0981C4"/>
<path d="M74.9999 50.8798C74.8999 51.2398 74.7999 51.5998 74.6899 51.9498C73.8899 54.3598 71.6499 56.0598 69.0999 56.1398C67.9099 56.1798 66.7299 56.1398 65.5399 56.1698C65.3599 56.1698 65.0599 56.3598 65.0199 56.5098C64.3999 59.0798 61.9799 61.5098 58.5199 61.4798C55.3499 61.4498 52.8099 59.2298 52.1399 56.3698C52.1299 56.3098 52.0899 56.2498 52.0499 56.1498H51.4499C46.8899 56.1498 42.3299 56.1498 37.7599 56.1498C37.3099 56.1498 37.0799 56.2198 36.9399 56.7298C36.1199 59.5898 33.4899 61.5198 30.5599 61.4998C27.6199 61.4798 25.0599 59.5098 24.2299 56.6498C24.1899 56.5098 24.1399 56.3698 24.0799 56.1698C23.4499 56.1698 22.8099 56.1698 22.1799 56.1698C18.1999 56.1698 15.4699 53.4598 15.4399 49.4698C15.4299 48.0098 15.4399 46.5598 15.4399 45.0198C14.3799 45.0198 13.3699 45.0298 12.3599 45.0198C11.4599 44.9998 10.8399 44.2498 11.0299 43.4498C11.1799 42.8298 11.6799 42.4398 12.4299 42.4298C13.4099 42.4098 14.3799 42.4298 15.3999 42.4298V32.0598C14.5199 32.0598 13.6599 32.0598 12.7899 32.0598C11.6099 32.0598 11.0199 31.6298 11.0099 30.7898C10.9999 29.9198 11.6099 29.4798 12.8199 29.4798C13.6699 29.4798 14.5199 29.4798 15.3899 29.4798C15.4499 28.8598 15.4599 28.2998 15.5699 27.7498C16.1899 24.6598 18.7899 22.5398 21.9999 22.5298C28.3099 22.5198 34.6199 22.5298 40.9299 22.5298C44.9899 22.5298 49.0499 22.5298 53.1199 22.5298C57.1599 22.5298 59.8899 25.2698 59.8899 29.3198C59.8899 30.0898 59.8899 30.8498 59.8899 31.6898C60.1799 31.6898 60.3999 31.6898 60.6199 31.6898C61.9899 31.6898 63.3699 31.6998 64.7399 31.6898C66.9199 31.6598 68.6399 32.5598 69.7799 34.3798C70.4199 35.4098 70.9499 36.5398 71.3399 37.6898C72.4799 41.0598 73.5199 44.4598 74.5999 47.8398C74.7399 48.2698 74.8599 48.7098 74.9899 49.1398V50.8898L74.9999 50.8798ZM52.0599 53.5798C52.1099 53.4298 52.1599 53.3198 52.1999 53.1998C53.1199 50.1798 55.5799 48.2698 58.5799 48.2598C61.5699 48.2598 64.0699 50.1498 64.9799 53.1598C65.0799 53.4898 65.2299 53.5798 65.5399 53.5798C66.5999 53.5698 67.6699 53.5998 68.7299 53.5698C71.4499 53.4798 72.9799 51.3098 72.1699 48.6998C71.6199 46.9298 71.0399 45.1798 70.4999 43.4098C70.3699 42.9698 70.1699 42.8398 69.7199 42.8398C67.6599 42.8598 65.5999 42.8498 63.5299 42.8398C62.4899 42.8398 61.8899 42.3698 61.8799 41.5498C61.8799 40.7298 62.4699 40.2498 63.4999 40.2498C65.0999 40.2498 66.7099 40.2498 68.3099 40.2498C68.6699 40.2498 69.0399 40.2498 69.4799 40.2498C68.9499 38.6498 68.5799 37.1098 67.6599 35.7898C66.9499 34.7798 66.0099 34.2398 64.7599 34.2698C63.3399 34.2898 61.9299 34.2698 60.5099 34.2698C60.3099 34.2698 60.1099 34.2898 59.8899 34.2998C59.8899 37.7498 59.8899 41.1198 59.8899 44.4998C59.8899 44.7498 59.8999 44.9998 59.8699 45.2498C59.7999 45.8698 59.2599 46.3498 58.6499 46.3798C58.0599 46.4098 57.4999 45.9998 57.3699 45.4098C57.3099 45.1298 57.2999 44.8298 57.2999 44.5398C57.2999 39.4998 57.2999 34.4598 57.2999 29.4198C57.2999 28.9598 57.2999 28.4998 57.1899 28.0598C56.7499 26.2098 55.2499 25.1298 53.1599 25.1298C42.8499 25.1298 32.5399 25.1298 22.2299 25.1298C21.9799 25.1298 21.7299 25.1298 21.4799 25.1498C19.4099 25.3198 17.7699 27.3998 18.1299 29.4698C18.3599 29.4698 18.6099 29.4698 18.8499 29.4698C22.6799 29.4698 26.5099 29.4698 30.3499 29.4698C30.5999 29.4698 30.8499 29.4698 31.0999 29.4998C31.7699 29.5998 32.2099 30.1298 32.1899 30.7998C32.1699 31.5898 31.6199 32.0398 30.6399 32.0398C26.6999 32.0398 22.7699 32.0398 18.8299 32.0398C18.5899 32.0398 18.3499 32.0398 18.0899 32.0398V42.4098C18.3799 42.4098 18.6199 42.4098 18.8699 42.4098C22.7199 42.4098 26.5799 42.4098 30.4299 42.4098C30.6999 42.4098 30.9799 42.4098 31.2299 42.4798C31.8699 42.6398 32.2299 43.1798 32.1699 43.8398C32.1199 44.4498 31.6699 44.9198 31.0499 44.9998C30.8399 45.0298 30.6299 45.0098 30.4299 45.0098C26.5599 45.0098 22.6799 45.0098 18.8099 45.0098H18.0699C18.0699 46.7498 17.9899 48.3898 18.0899 50.0298C18.2199 52.0298 19.7199 53.4298 21.7299 53.5598C22.5199 53.6098 23.3099 53.5598 24.1099 53.5598C24.1699 53.3798 24.2199 53.2298 24.2699 53.0698C25.0999 50.2298 27.6399 48.2898 30.5599 48.2598C33.5199 48.2298 36.1299 50.1398 36.9599 52.9898C37.0999 53.4698 37.2999 53.5898 37.7699 53.5898C42.3299 53.5698 46.8899 53.5798 51.4499 53.5798H52.0799H52.0599ZM26.6099 54.8498C26.5999 57.0798 28.3599 58.8798 30.5699 58.8898C32.7999 58.9098 34.6099 57.1398 34.6299 54.9398C34.6499 52.6798 32.8699 50.8798 30.6299 50.8698C28.3999 50.8698 26.6199 52.6198 26.6099 54.8498ZM54.5899 54.9098C54.5999 57.1298 56.3899 58.8998 58.6099 58.8998C60.8199 58.8998 62.6199 57.0998 62.6199 54.8898C62.6199 52.6498 60.8099 50.8598 58.5499 50.8798C56.3299 50.8998 54.5699 52.6798 54.5899 54.9198V54.9098Z" fill="white"/>
<path d="M31.55 38.5202C28.53 38.5202 25.51 38.5202 22.5 38.5202C21.71 38.5202 21.2 38.1602 21.05 37.5102C20.9 36.8702 21.3 36.1802 21.95 36.0102C22.19 35.9502 22.44 35.9302 22.69 35.9302C28.62 35.9302 34.55 35.9302 40.49 35.9302C40.66 35.9302 40.82 35.9302 40.99 35.9502C41.74 36.0502 42.21 36.5902 42.18 37.3002C42.15 38.0102 41.63 38.5102 40.86 38.5202C39.86 38.5402 38.86 38.5202 37.86 38.5202C35.76 38.5202 33.66 38.5202 31.55 38.5202Z" fill="white"/>
<path d="M30.5401 56.1499C29.8301 56.1099 29.3101 55.5399 29.3401 54.8199C29.3701 54.0799 29.9601 53.5499 30.7101 53.5999C31.4201 53.6399 31.9301 54.2099 31.9101 54.9299C31.8801 55.6699 31.3001 56.1899 30.5401 56.1499Z" fill="white"/>
<path d="M59.8799 54.8499C59.8899 55.5799 59.3299 56.1499 58.5999 56.1499C57.8799 56.1499 57.2799 55.5699 57.2899 54.8599C57.2899 54.1699 57.8599 53.5999 58.5499 53.5899C59.2899 53.5699 59.8699 54.1199 59.8799 54.8499Z" fill="white"/>
</svg>
